<svg width="61" height="64" viewBox="0 0 61 64" fill="none" xmlns="http://www.w3.org/2000/svg">
<path d="M30.4989 4.51828C30.1437 4.51828 29.8555 4.22708 29.8555 3.86677V0.651507C29.8555 0.29187 30.143 0 30.4989 0C30.8547 0 31.1423 0.291199 31.1423 0.651507V3.86744C31.1423 4.22708 30.8547 4.51895 30.4989 4.51895V4.51828Z" fill="#FFCB00"/>
<path d="M45.3226 10.7346C45.1583 10.7346 44.9933 10.6709 44.868 10.5441C44.6169 10.2898 44.6169 9.87712 44.868 9.62282L47.1136 7.34892C47.3648 7.09463 47.7716 7.09463 48.0234 7.34892C48.2746 7.60322 48.2746 8.01586 48.0234 8.26949L45.7778 10.5434C45.6519 10.6709 45.4876 10.7339 45.3233 10.7339L45.3226 10.7346Z" fill="#FFCB00"/>
<path d="M13.432 43.0289C13.2676 43.0289 13.1026 42.9651 12.9774 42.8383C12.7263 42.584 12.7263 42.1714 12.9774 41.9177L15.223 39.6438C15.4742 39.3896 15.881 39.3896 16.1328 39.6438C16.3839 39.8981 16.3839 40.3108 16.1328 40.5651L13.8872 42.839C13.7613 42.9665 13.597 43.0295 13.4326 43.0295L13.432 43.0289Z" fill="#FFCB00"/>
<path d="M54.6396 25.7444H51.4637C51.1085 25.7444 50.8203 25.4532 50.8203 25.0929C50.8203 24.7326 51.1079 24.4414 51.4637 24.4414H54.6396C54.9948 24.4414 55.283 24.7326 55.283 25.0929C55.283 25.4532 54.9955 25.7444 54.6396 25.7444Z" fill="#FFCB00"/>
<path d="M9.53808 25.7444H6.36215C6.00699 25.7444 5.71875 25.4532 5.71875 25.0929C5.71875 24.7326 6.00633 24.4414 6.36215 24.4414H9.53808C9.89324 24.4414 10.1815 24.7326 10.1815 25.0929C10.1815 25.4532 9.89391 25.7444 9.53808 25.7444Z" fill="#FFCB00"/>
<path d="M47.5682 43.0276C47.4039 43.0276 47.2389 42.9638 47.1136 42.837L44.868 40.5631C44.6169 40.3088 44.6169 39.8962 44.868 39.6419C45.1192 39.3876 45.526 39.3876 45.7778 39.6419L48.0234 41.9158C48.2746 42.1701 48.2746 42.5827 48.0234 42.8364C47.8975 42.9638 47.7332 43.0269 47.5689 43.0269L47.5682 43.0276Z" fill="#FFCB00"/>
<path d="M15.6776 10.7359C15.5133 10.7359 15.3483 10.6722 15.223 10.5453L12.9774 8.27144C12.7263 8.01715 12.7263 7.6045 12.9774 7.35088C13.2285 7.09658 13.6354 7.09658 13.8872 7.35088L16.1328 9.62478C16.3839 9.87907 16.3839 10.2917 16.1328 10.546C16.0069 10.6735 15.8426 10.7366 15.6782 10.7366L15.6776 10.7359Z" fill="#FFCB00"/>
<path d="M38.5961 6.16524C38.5133 6.16524 38.4292 6.14914 38.3483 6.11492C38.021 5.97603 37.8659 5.59425 38.0031 5.26279L39.2296 2.29646C39.3668 1.96433 39.7451 1.80867 40.0711 1.94689C40.3984 2.08578 40.5535 2.46755 40.4163 2.79901L39.1898 5.76535C39.0865 6.01495 38.8479 6.16524 38.5961 6.16524Z" fill="#FFCB00"/>
<path d="M49.8977 17.698C49.6446 17.698 49.4047 17.5457 49.302 17.2934C49.1675 16.9606 49.3246 16.5801 49.6532 16.4439L52.5919 15.2248C52.9206 15.0879 53.2963 15.2476 53.4308 15.5804C53.5653 15.9132 53.4083 16.2936 53.0796 16.4299L50.1409 17.649C50.0614 17.6819 49.9786 17.698 49.8971 17.698H49.8977Z" fill="#FFCB00"/>
<path d="M8.16336 35.0122C7.91024 35.0122 7.67037 34.8598 7.56766 34.6076C7.43315 34.2748 7.59019 33.8943 7.91885 33.7581L10.8576 32.539C11.1862 32.4028 11.5619 32.5618 11.6964 32.8946C11.8309 33.2274 11.6739 33.6078 11.3452 33.744L8.40654 34.9632C8.32702 34.996 8.2442 35.0122 8.16269 35.0122H8.16336Z" fill="#FFCB00"/>
<path d="M52.7678 35.185C52.6849 35.185 52.6008 35.1689 52.5199 35.1347L49.5905 33.8927C49.2632 33.7538 49.1081 33.3721 49.2453 33.0406C49.3824 32.7085 49.7601 32.5528 50.0868 32.691L53.0162 33.933C53.3436 34.0719 53.4986 34.4537 53.3615 34.7851C53.2581 35.0347 53.0195 35.185 52.7678 35.185Z" fill="#FFCB00"/>
<path d="M11.1623 17.547C11.0795 17.547 10.9953 17.5309 10.9145 17.496L7.98503 16.2541C7.6577 16.1152 7.50264 15.7334 7.6398 15.4019C7.77697 15.0698 8.15532 14.9141 8.48133 15.0524L11.4108 16.2943C11.7381 16.4332 11.8931 16.815 11.756 17.1464C11.6526 17.396 11.4141 17.5463 11.1623 17.5463V17.547Z" fill="#FFCB00"/>
<path d="M22.5509 6.10272C22.2978 6.10272 22.0579 5.95041 21.9552 5.69813L20.7513 2.7224C20.6167 2.3896 20.7738 2.00916 21.1024 1.87296C21.4311 1.73675 21.8068 1.89577 21.9413 2.22857L23.1453 5.2043C23.2798 5.5371 23.1228 5.91753 22.7941 6.05374C22.7146 6.08662 22.6318 6.10272 22.5503 6.10272H22.5509Z" fill="#FFCB00"/>
<path d="M36.1382 56.0798H25.2739C24.661 56.0798 24.1641 55.5765 24.1641 54.9559C24.1641 54.3353 24.661 53.832 25.2739 53.832H36.1382C36.7512 53.832 37.2481 54.3353 37.2481 54.9559C37.2481 55.5765 36.7512 56.0798 36.1382 56.0798Z" fill="#002A47"/>
<path d="M36.1382 59.6091H25.2739C24.661 59.6091 24.1641 59.1058 24.1641 58.4852C24.1641 57.8646 24.661 57.3613 25.2739 57.3613H36.1382C36.7512 57.3613 37.2481 57.8646 37.2481 58.4852C37.2481 59.1058 36.7512 59.6091 36.1382 59.6091Z" fill="#002A47"/>
<path d="M28.0676 60.9395C27.7986 60.9395 27.5945 61.187 27.6442 61.4548C27.9119 62.9027 29.1649 63.9991 30.6724 63.9991C32.1798 63.9991 33.4328 62.9027 33.7005 61.4548C33.7502 61.187 33.5461 60.9395 33.2771 60.9395H28.0676Z" fill="#002A47"/>
<path d="M34.987 52.4161H26.2637C24.7522 52.4161 23.48 51.2198 23.3667 49.6927C22.997 44.7128 20.9906 41.5572 18.8655 38.2165C16.5484 34.5731 14.1523 30.8063 14.1523 24.7146C14.1523 16.4886 19.9635 9.56627 27.9693 8.25453C29.8405 7.9479 31.8124 7.97205 33.6744 8.32364C41.4529 9.79641 47.0984 16.6899 47.0984 24.7146C47.0984 30.8063 44.7023 34.5738 42.3845 38.2165C40.2595 41.5572 38.2524 44.7128 37.8833 49.6927C37.77 51.2198 36.4971 52.4161 34.9864 52.4161H34.987Z" fill="#FFCB00"/>
<path d="M22.645 35.1653C22.3137 35.1653 21.9877 35.0103 21.7776 34.7191C15.826 26.4414 20.2132 18.673 20.4027 18.3462C20.7029 17.8296 21.3602 17.6565 21.8704 17.9604C22.38 18.2644 22.5509 18.928 22.2527 19.4439C22.0884 19.7304 18.4095 26.3461 23.511 33.4409C23.8596 33.9254 23.7542 34.6044 23.2758 34.9573C23.085 35.0975 22.8643 35.1653 22.6457 35.1653H22.645Z" fill="white"/>
</svg>
